<svg width="461" height="461" viewBox="0 0 461 461" fill="none" xmlns="http://www.w3.org/2000/svg">
	<!-- 
      背景层
      颜色: MD3 Primary Container (Tone 90) -> #D3E3FD
    -->
	<path
		d="M93.6379 63.9405C89.7543 78.4344 78.4333 89.7554 63.9394 93.639l-7.4405 1.9937c-22.4055 6.0033-35.702 29.0333-29.6984 51.4393l1.9196 7.164c3.8837 14.494-.2601 29.959-10.8704 40.569l-5.5482 5.548c-16.402 16.402-16.402 42.995 0 59.397l5.6221 5.622c10.6102 10.611 14.754 26.075 10.8704 40.569l-1.9936 7.441c-6.0036 22.405 7.2929 45.435 29.6985 51.439l7.4406 1.994c14.4939 3.883 25.8149 15.204 29.6985 29.698l1.9942 7.443c6.0038 22.405 29.0338 35.702 51.4388 29.698l7.442-1.994c14.494-3.883 29.959.26 40.569 10.871l5.271 5.271c16.402 16.402 42.995 16.402 59.397 0l5.347-5.347c10.61-10.61 26.075-14.754 40.569-10.87l7.717 2.068c22.405 6.003 45.435-7.293 51.439-29.699l1.993-7.439c3.884-14.494 15.205-25.815 29.699-29.699l7.441-1.994c22.406-6.003 35.702-29.033 29.699-51.439l-2.068-7.718c-3.884-14.493.26-29.958 10.87-40.569l5.346-5.346c16.402-16.402 16.402-42.995 0-59.397l-5.272-5.272c-10.61-10.61-14.754-26.075-10.87-40.569l1.994-7.441c6.003-22.406-7.293-45.436-29.699-51.4398l-7.441-1.9939c-14.494-3.8836-25.815-15.2046-29.699-29.6984l-1.993-7.4395c-6.004-22.4056-29.034-35.702-51.439-29.6985l-7.441 1.9937c-14.494 3.8836-29.959-.2601-40.569-10.8704l-5.623-5.6227c-16.402-16.402-42.995-16.402-59.397 0l-5.547 5.5476c-10.61 10.6102-26.075 14.754-40.569 10.8704l-7.166-1.92c-22.405-6.0036-45.435 7.2929-51.4388 29.6985l-1.9943 7.4425Z"
		fill="#D3E3FD" />

	<!-- 
      前景层配置 (Foreground Configuration)
      
      1. 颜色 (Color):
         - 当前值: #0B57D0 (MD3 Primary / Tone 40)
         - 备选值: #001D36 (MD3 On Primary Container / Tone 10) - 符合严格对比度规范，但视觉效果偏黑，暂未采用
      
      2. 缩放 (Scale): 13.5821
         - 计算逻辑: 容器宽度(461) × 白银比例(1/√2) ÷ 原始尺寸(24) ≈ 13.5821
         - 设计意图: 图标宽度占据容器宽度的约 70.7% (Silver Ratio)
      
      3. 位移 (Translate): 67.5148
         - 计算逻辑: 容器中心(230.5) - (图标中心(12) × 缩放倍率) ≈ 67.5148
    -->
	<path
		d="M10 19v-5h4v5c0 .55.45 1 1 1h3c.55 0 1-.45 1-1v-7h1.7c.46 0 .68-.57.33-.87L12.67 3.6c-.38-.34-.96-.34-1.34 0l-8.36 7.53c-.34.3-.13.87.33.87H5v7c0 .55.45 1 1 1h3c.55 0 1-.45 1-1z"
		fill="#0B57D0"
		transform="translate(67.5148, 67.5148) scale(13.5821)" />
</svg>